<?xml version="1.0" encoding="UTF-8"?>
<svg version="1.1" viewBox="0 0 1440 1440" width="1280" height="1280" xmlns="http://www.w3.org/2000/svg">
<path transform="translate(478,375)" d="m0 0h14l10 4 7 8 7 15 1 4 11-1 60-5 57-3 40-1h58l45 1 61 3 38 3 29 3 7 1 2-8 7-14 7-7 7-3h13l27 3 31 6 35 9 37 12 19 8 4 4 2 17v16l21 13 10 9 7 11 8 16 8 19 16 47 10 33 10 38 16 64 11 48 9 43 6 32 5 39 1 14v58l-2 19-5 25-6 20-8 18-10 17-8 10-9 10-11 9-14 9-16 8-15 5-18 4-30 5h-12l-11-3-8-4-10-8-11-14-9-14-12-25-15-39-19-56-14-41-7-11-9-9-13-10-13-6-16-3h-12l-17 3-13 3-31 3-25 1h-207l-40-2-22-3-11-3-14-2h-11l-15 3-16 8-15 13-8 9-5 11-12 35-14 43-14 38-11 26-11 21-9 12-9 10-10 8-9 4-9 2h-11l-20-3-20-4-24-8-17-8-17-12-17-17-14-21-8-17-8-24-5-25-3-28v-40l1-20 5-40 8-43 14-64 15-63 11-41 7-25 14-45 11-31 11-24 6-11 8-11 9-7 17-10h2v-22l2-13 5-4 26-10 32-10 32-8 36-7zm193 36-55 2-59 4-44 4-4 1 6 36 11 62 8 42 6 28 5 12 7 8 10 6 12 4 28 2 43 1h153l42-1 25-2 13-4 11-7 7-9 5-14 9-46 20-112v-6l-38-4-55-4-36-2-30-1zm-184 13-35 6-37 7-40 10-29 10-23 11-12 8-7 8-13 25-10 26-12 36-12 42-14 53-15 63-11 51-9 47-5 39-1 15v50l3 24 5 23 7 20 8 17 9 13 9 10 9 9 13 9 16 8 20 7 4-1 9-25 10-29 18-49 13-35 19-49 11-27 14-34 16-36 12-25 12-22 9-14 11-13 11-11v-2l3-1 7-8 14-15 9-11 9-14 5-11 3-10 1-7v-21l-4-23-12-63-12-70-3-19-1-2zm464 1-2 6-12 71-12 65-6 31v27l4 15 7 14 10 14 12 13 9 10 14 15 8 8 12 16 10 17 14 27 12 25 17 40 24 60 18 47 18 49 16 44 11 32 8-1 20-7 16-9 11-9 13-13 11-16 8-16 6-16 6-25 2-12 2-28v-25l-2-35-6-42-12-60-17-74-15-58-12-42-12-38-10-28-9-20-8-14-6-7-13-8-16-8-18-7-29-9-38-9-34-6-25-4zm-386 263-15 4-11 6-9 7-9 10-8 16-3 12v18l4 16 6 12 8 10 12 9 10 5 11 3 9 1h10l16-3 14-7 9-7 7-8 8-14 4-13 1-6v-13l-4-16-7-14-9-11-12-9-15-6-9-2zm296 0-16 4-13 7-10 9-7 8-7 14-3 11-1 16 2 12 5 13 8 12 4 5 12 9 12 6 17 3h11l12-2 12-5 10-6 7-6 9-12 6-13 2-11v-20l-3-12-7-14-11-12-9-7-10-5-15-4zm-438 257m592 0 1 8 13 37 12 30 11 24 8 13 7 9 3 1-3-9-15-32-10-24-13-30-10-21-3-6zm-593 2-18 40-6 15-6 13-6 15-7 15-9 18v3l4-2 7-9 9-16 10-22 15-39 7-21 1-10z" fill="#010101"/>
<path transform="translate(862,700)" d="m0 0h13l12 3 12 6 11 10 8 14 3 12v16l-3 11-6 11-9 10-9 6-9 4-13 2-15-1-12-4-10-7-7-7-8-14-3-10-1-12 2-12 4-10 8-11 9-8 12-6z" fill="#010101"/>
<path transform="translate(568,700)" d="m0 0h12l13 3 11 6 10 9 6 8 5 12 2 10v10l-3 13-8 14-6 7-12 8-12 4h-24l-13-5-9-7-8-8-6-11-3-9-1-7v-10l2-11 6-12 11-12 8-6 13-5z" fill="#010101"/>
<path transform="translate(981,568)" d="m0 0h13l11 4 8 6 7 10 3 8v16l-5 12-6 7-10 6-12 3h-7l-10-3-10-6-6-7-5-12v-17l4-10 6-8 12-7z" fill="#020202"/>
<path transform="translate(1062,631)" d="m0 0h8l9 2 8 4 7 7 5 9 3 10-1 13-4 9-7 9-10 6-9 3h-10l-12-4-8-6-7-9-3-7-1-5v-13l5-12 7-8 10-6z" fill="#020202"/>
<path transform="translate(1118,554)" d="m0 0 13 1 12 6 7 7 6 12 1 4v12l-3 10-6 8-8 7-11 4-5 1h-8l-10-3-9-6-6-7-4-8-2-7v-9l4-13 6-8 7-6 9-4z" fill="#010101"/>
<path transform="translate(1043,489)" d="m0 0h10l13 4 9 7 7 11 2 7v14l-4 10-4 6-4 5-11 6-5 1h-16l-9-3-8-6-6-8-4-10-1-10 3-12 6-10 8-7 9-4z" fill="#020202"/>
<path transform="translate(439,564)" d="m0 0h27l2 8 3 36-1 5-8 2-29 2-16-8-12-8-7-6 2-5 15-15 14-10z" fill="#020202"/>
<path transform="translate(397,510)" d="m0 0 7 1 2 9 2 18v10l-7 14-10 15-5 6-7-4-9-9-11-14-3-5-2-27v-6l2-4 3-1z" fill="#020202"/>
<path transform="translate(386,607)" d="m0 0 5 2 10 10 7 8 7 9 1 4 2 23v8l-2 4-2 1-27 3-15 1-4-1-2-7-2-20v-12l12-20 8-11z" fill="#020202"/>
<path transform="translate(328,573)" d="m0 0h13l14 8 12 8 7 5-2 5-7 8-8 7-10 8-6 2-16 2h-19l-2-5-2-31v-13l1-1z" fill="#020202"/>
<path transform="translate(460,459)" d="m0 0h7l6 4 3 9 4 22v12l-5 5-5 3-7-1-5-3-3-8-5-28 1-8 4-5z" fill="#060606"/>
<path transform="translate(974,459)" d="m0 0 7 1 5 3 2 2v17l-5 25-5 5-4 2-7-1-6-4-2-5 1-14 5-25 4-4z" fill="#050505"/>
</svg>
