<?xml version="1.0" encoding="UTF-8"?>
<svg version="1.1" viewBox="0 0 2000 2000" width="1280" height="1280" xmlns="http://www.w3.org/2000/svg">
<path transform="translate(791,604)" d="m0 0h424l51 1 37 2 32 4 38 8 16 5 30 11 18 8 23 12 23 13 21 16 13 10 14 12 14 14 7 8 7 7 11 14 12 15 12 17 8 12 10 17 14 29 13 33 7 24 8 35 4 27 2 29v29l-2 25-5 30-6 27-7 25-10 27-17 36-11 20-16 25-11 14-12 14-11 12-3 3h-2l-2 4-16 16-8 7-16 13-14 10-14 9-15 9-19 11-25 11-18 7-13 5-18 6-22 5-24 4-32 3-28 1h-505l-64-2-28-4-25-5-25-7-42-16-24-11-15-9-17-10-12-9-15-11-13-10-13-12-27-27-11-14-12-16-13-20-9-14-12-23-10-19-11-28-10-33-5-24-4-25-2-30v-36l2-33 7-36 7-23 11-31 9-22 9-19 15-25 16-24 10-13 12-14 15-16 20-20 8-7 16-13 11-8 10-7 21-12 24-13 14-7 23-9 8-3 11-4 23-6 31-6 18-2 42-2zm-60 261-19 2-15 4-20 8-16 9-13 10-7 6-7 8-11 15-8 14-6 13-5 17-3 20v16l3 21 6 20 8 16 11 15 8 10 3 4h2v2l8 7 10 9 13 8 16 8 10 4 10 2 12 1 42 1h115l89-1h101l161 1h29l26-2 17-4 20-8 17-9 13-10 13-13 9-12 10-15 8-19 4-16 2-13v-28l-3-22-5-15-7-14-10-14-8-10-7-8-11-9-15-10-24-11-21-6-17-2h-69l-36 1-88 1-225-1-38-1z"/>
</svg>
