<?xml version="1.0" encoding="UTF-8"?>
<svg version="1.1" viewBox="0 0 2048 1361" width="1280" height="1280" xmlns="http://www.w3.org/2000/svg">
<path transform="translate(704,309)" d="m0 0h494l6 3 7 7 3 8v288l-8 1h-516l-2-1v-287l4-10 8-7zm262 76-10 9-127 127-2 5 3 5 4 2 5-1 10-10 6-5v-2h2l5-5v-2l3-1v-2l4-2 12-12 7-8 10-9 75-75 3-5-1-5-4-4zm43 87-6 4-66 66-2 4 3 5 2 2h7l12-11 56-56 3-6-3-6-3-2z"/>
<path transform="translate(688,893)" d="m0 0h515l17 1 9 6 5 10v151l-4 8-7 6-6 2h-533l-6-3-5-4-5-10v-150l4-8 8-7zm14 19-4 4v6l5 5h17l5-3 1-1v-7l-4-4zm39 0-4 5 1 6 5 4h18l5-5v-6l-4-4zm40 0-4 5 1 6 4 4h19l4-4 1-6-2-4-2-1zm40 0-4 4 1 7 5 4h18l4-4 1-5-3-5-1-1zm40 0-4 5 1 6 4 4h18l4-2 2-7-3-5-1-1zm40 0-4 4 1 7 4 4h18l5-4 1-6-4-5zm54-1-14 1-5 5 2 7 4 3h18l5-4 1-6-4-5zm26 1-4 3-1 4 2 5 3 3h19l5-4 1-5-3-5-2-1zm39 0-4 4 1 7 4 4 9 1 10-1 5-5v-6l-4-4zm40 0-4 4 1 7 4 4h19l4-4 1-6-2-4-2-1zm40 0-4 4v6l5 5h18l5-4v-8l-4-3zm40 0-4 4-1 3 4 7 2 1h19l4-5v-6l-4-4zm40 0-5 5 2 7 4 3h18l5-5v-6l-4-4zm-479 35-3 3v7l3 4 3 1h14l6-2 2-3v-6l-4-4zm40 0-4 6 1 5 3 3 3 1h17l4-3 1-8-3-4zm40 0-3 3-1 6 4 5 3 1h16l4-2 2-4-1-7-3-2zm39 0-3 5 1 6 3 3 3 1h13l7-2 2-7-2-5-2-1zm40 0-3 5 1 6 2 3 3 1h17l4-2 1-2v-8l-3-3zm40 0-3 5 1 6 2 3 4 1h14l5-2 3-5-2-6-2-2zm40 0-3 4v6l3 4 3 1h11l8-1 4-6-2-6-2-2zm40 0-4 5 1 5 3 4 5 1h12l7-3 2-4-1-5-4-3zm40 0-4 5 1 6 3 3 5 1h11l7-2 2-3v-6l-2-3-3-1zm40 0-4 5 1 6 3 3 4 1h15l5-4 1-6-2-4-2-1zm39 0-3 5 1 7 2 2 6 1h13l5-3 1-1v-8l-3-3zm53 0-3 4-1 30-36 1-2 3v8l4 4h45l3-1 2-4v-42l-3-3zm27 0-4 5 1 6 3 3 6 1h12l5-2 2-3-1-8-3-2zm-477 35-4 4v6l3 4 3 1h15l5-3 2-2v-6l-4-4zm39 0-3 3-1 5 4 6 2 1h17l4-2 2-4-1-7-3-2zm40 0-4 5 1 6 5 4h16l5-3 2-3-1-6-3-3zm40 0-3 3-1 5 3 5 4 2h15l5-3 2-4-1-5-2-3zm40 0-4 4 1 7 5 4h16l5-3 2-6-3-5-1-1zm39 0-3 5 1 6 5 4h15l5-2 3-5-2-6-2-2zm41 0-4 4v6l3 4 3 1h15l6-3 2-6-3-5-2-1zm40 0-5 5 2 7 5 3h15l5-3 3-4-1-4-2-3-3-1zm40 0-5 4 1 7 5 4h18l5-5v-6l-4-4zm40 0-5 4 1 7 5 4h17l5-4 1-7-4-4zm118 0-4 6 2 6 5 3h14l6-2 2-4-1-7-3-2zm-478 35-3 4v6l3 4h22l3-4v-6l-4-4zm40 0-3 3-1 5 2 5 2 1h22l3-4-1-8-2-2zm40 0-4 6 1 5 3 3h181l3-3-1-9-2-2zm199 0-4 6 3 7 1 1h21l4-4-1-8-3-2zm40 0-4 5 1 6 3 3h22l3-5-1-7-3-2zm40 0-3 3-1 6 4 5h21l3-3 1-5-2-5-3-1zm40 0-3 2-1 7 2 4 2 1h21l3-3v-8l-3-3zm39 0-3 4v6l3 4 7 1h12l5-3 1-2-1-9-2-1zm40 0-3 4v7l4 3 13 1 9-2 2-4-1-7-3-2z"/>
<path transform="translate(1229,548)" d="m0 0h154l1 2v282l-2 1h-184l-1-1v-104l2-3 11-4 7-6h2l2-4 5-8 2-9zm55 37-7 3-8 7-4 9-1 9 3 10 7 8 6 4 9 2 9-1 8-4 5-4 5-10 1-3v-8l-4-10-7-8-9-4zm47 47-5 2-2 2v7l5 5h26l6-5v-6l-4-4-5-1zm-83 135-4 2-1 2v7l4 4h87l4-4v-7l-3-3-2-1z"/>
<path transform="translate(688,631)" d="m0 0h526v61l-3 9-5 6-8 4-24 1-470-1-7-4-6-7-2-4-1-6zm449 26-3 1-3 7 2 5 4 2h28l4-3 1-6-3-5-3-1z"/>
<path transform="translate(1229,409)" d="m0 0h154l1 1v122l-1 1h-154z"/>
<path transform="translate(869,797)" d="m0 0h162l13 2 12 5 10 9 6 11 2 8-1 1h-244l-1-2 6-15 8-9 10-6 10-3z"/>
<path transform="translate(895,727)" d="m0 0h112l1 2 6 50v3h-126l2-18z"/>
<path transform="translate(1339,840)" d="m0 0h14l1 1v165l-2 14-6 11-7 7-9 5-10 2h-70l-1-1v-13l1-1 71-1 8-4 6-7 2-5 1-172z"/>
<path transform="translate(1286,600)" d="m0 0h8l6 4 2 4-1 7-5 6-2 1h-7l-6-5-2-5 1-6 4-5z"/>
</svg>
