<?xml version="1.0" encoding="UTF-8"?>
<svg version="1.1" viewBox="0 0 1440 1440" width="1280" height="1280" xmlns="http://www.w3.org/2000/svg">
<path transform="translate(665,2)" d="m0 0h1l1 11v237l-3 6-10 7-32 19-28 16-15 9-29 17-26 15-43 24-22 13-22 14-3 5v10l3 5 16 10 23 13 24 14 21 12 29 17 19 11 28 16 26 15 28 16 26 15 30 18 13 4h8l16-7 27-16 26-15 49-28 44-26 26-15 42-24 15-9 17-10 15-9 5-5 2-4-1-9-4-5-28-17-24-14-28-16-23-13-56-32-34-20-28-16-7-6-1-10v-241l5 2 13 7 16 10 26 15 28 17 27 15 24 14 21 12 41 24 23 13 22 13 52 30 48 28 52 30 24 14 28 16 19 11 27 16 21 12 15 9 28 17 16 12 1 1v663l-1 2-5-1-23-13-25-14-28-17-41-24-26-15-22-13-20-12-18-12-5-5-5-9-1-33-1-134v-91l-5-9-3-2-8 1-23 13-28 17-23 13-26 15-24 14-25 14-15 9-24 14-27 15-19 11-18 10-21 12-5 4-5 10-1 23v188l1 113 2 7 4 2 10-1 24-13 17-10 26-15 28-16 26-15 15-9 17-10 21-12 22-13 18-10 11-6h8l12 6 14 8 22 13 24 14 14 8 15 9 58 34 20 11 21 13 13 9-1 3-11 7-13 8-18 10-43 25-27 15-48 28-26 15-23 13-86 50-29 16-24 14-20 11-24 14-25 14-13 8-15 9-29 17-24 14-28 16-24 14-16 9-7 4-4-1-1-6h-3v3l-6-2-17-10-26-16-28-16-25-15-58-34-75-44-26-15-24-14-53-31-25-14-24-14-26-15-25-14-24-14-51-30-23-13-35-20-1-2 6-3 27-16 26-15 28-16 29-17 49-28 25-15 22-13 4-1 10 4 23 13 27 16 26 15 21 12 27 15 26 15 29 17 13 8 26 15 7 2 8-5 4-5 1-3 1-164v-140l-1-21-4-7-7-6-27-16-24-14-25-14-27-16-25-14-24-14-23-13-26-15-24-14-46-26-4-2-7 1-6 4-3 4-1 20-1 245-2 4-15 10-54 32-28 16-32 19-26 15-21 12-15 9-16 9-4 2h-3l-1-17v-116l1-527 6-7 19-12 28-16 24-14 22-13 26-15 17-10 25-14 42-24 23-13 24-14 25-14 52-30 24-14 21-12 26-15 35-20 24-14 23-13 26-15 44-26 19-11 3-1z" fill="#7F8080"/>
<path transform="translate(1349,339)" d="m0 0 4 1 2 2v663l-1 2-5-1-23-13-25-14-28-17-41-24-26-15-22-13-20-12-18-12-5-5-5-9-1-33-1-134v-91l-5-9-3-2-8 1-23 13-28 17-23 13-26 15-24 14-25 14-15 9-24 14-27 15-19 11-18 10-21 12-5 4-5 10-1 23v188l1 113 2 7 4 2 10-1 24-13 17-10 26-15 28-16 26-15 15-9 17-10 21-12 22-13 18-10 11-6h8l12 6 14 8 22 13 24 14 14 8 15 9 58 34 20 11 21 13 13 9-1 3-11 7-13 8-18 10-43 25-27 15-48 28-26 15-23 13-86 50-29 16-24 14-20 11-24 14-25 14-13 8-15 9-29 17-24 14-28 16-24 14-16 9-7 4-4-1 1-732 23-13 24-14 21-12 22-13 23-13 17-10 52-30 41-24 19-11 23-13 39-23 24-14 45-26 14-8 17-10 26-15 41-24 19-11 21-12 27-16 23-13 17-10 26-15 22-13z"/>
<path transform="translate(88,340)" d="m0 0 17 8 24 14 25 14 27 16 52 30 23 13 94 55 26 15 24 14 23 13 25 15 14 8 24 14 21 12 26 15 27 16 16 9 17 10 28 16 39 23 24 14 21 12 13 8 2 1v728l-2 1v-4h-3v3l-6-2-17-10-26-16-28-16-25-15-58-34-75-44-26-15-24-14-53-31-25-14-24-14-26-15-25-14-24-14-51-30-23-13-35-20-1-2 6-3 27-16 26-15 28-16 29-17 49-28 25-15 22-13 4-1 10 4 23 13 27 16 26 15 21 12 27 15 26 15 29 17 13 8 26 15 7 2 8-5 4-5 1-3 1-164v-140l-1-21-4-7-7-6-27-16-24-14-25-14-27-16-25-14-24-14-23-13-26-15-24-14-46-26-4-2-7 1-6 4-3 4-1 20-1 245-2 4-15 10-54 32-28 16-32 19-26 15-21 12-15 9-16 9-4 2h-3l-1-17v-116l1-527z" fill="#4D4C4C"/>
<path transform="translate(315,596)" d="m0 0h7l12 6 13 8 11 6 26 15 14 8 10 6 14 8 24 14 16 9 19 11 6 4 11 6 16 9 4 2v2l7 2 9 6 27 15 16 10 10 5 5 3 13 9 3 5v2h2l1 7v119l-1 17h-1l-1-119-1-21-4-7-7-6-27-16-24-14-25-14-27-16-25-14-24-14-23-13-26-15-24-14-46-26-4-2-7 1-6 4-3 4-1 20-1 245-1 3h-2v-248l1-20 5-6z" fill="#040404"/>
<path transform="translate(354,978)" d="m0 0 2 1-11 8-29 17-28 16-24 14-20 11-25 15-17 10-26 15-22 13-5 3v2l5 1 10 6 20 11 14 8 25 15 26 15 19 11 23 13 3 1v2l6 2 14 8 9 6 36 21 15 8 13 8 26 15 19 11 14 8 25 15 22 13 1 2-5-2-23-13-27-16-21-12-22-13-28-16-23-13-26-15-19-11-49-28-20-12-29-17-23-13-35-20-1-2 6-3 27-16 26-15 28-16 29-17 49-28 25-15z" fill="#0E0E0E"/>
<path transform="translate(665,2)" d="m0 0h1l1 11v237l-1 3h-2v-244h-3l-9 6-11 6-23 13-27 15-2-1 25-15 19-11 17-10 13-8h2z" fill="#606060"/>
<path transform="translate(391,636)" d="m0 0 5 2 12 7 14 8 24 14 16 9 19 11 6 4 11 6 16 9 4 2v2l7 2 9 6 27 15 16 10 10 5 5 3 13 9 3 5v2h2l1 7v119l-1 17h-1l-1-119-1-21-4-7-7-6-27-16-24-14-25-14-27-16-25-14-24-14-23-13-26-15-4-3z" fill="#030303"/>
<path transform="translate(358,976)" d="m0 0 11 4 23 13 27 16 26 15 21 12 27 15 26 15 29 17 13 8 26 15 10 4-3 1-17-7-22-12-25-15-21-12-11-7-12-6-4-3-11-6-27-15-13-8-26-15-17-10-10-6-11-6-10-5z" fill="#0C0C0C"/>
<path transform="translate(458,123)" d="m0 0 2 1-18 11-53 31-27 15-24 14-16 9-24 14-16 9-24 14-23 13-31 17-16 10-13 8-11 6-28 16-26 15-7 4-2-1 16-10 25-14 44-26 26-15 17-10 25-14 42-24 23-13 24-14 25-14 52-30 24-14z" fill="#5B5B5B"/>
<path transform="translate(297,877)" d="m0 0 2 1-10 7-28 17-26 15-17 10-26 15-20 12-26 15-21 12-15 9-16 9-6 2 1-3 36-21 13-8 10-5 9-6 6-3 24-14 11-7 12-6 16-10 16-9 10-6 14-8 10-6z" fill="#0C0C0C"/>
<path transform="translate(354,978)" d="m0 0 2 1-11 8-29 17-28 16-24 14-20 11-25 15-17 10-26 15-22 13-3-1 3-3 29-17 26-15 28-16 22-13 49-28 25-15z" fill="#101010"/>
<path transform="translate(554,1338)" d="m0 0 6 2 26 15 19 11 21 12 27 16 18 10 13 8 26 15 4 3v2l-5-1-17-10-26-16-28-16-25-15-58-34z" fill="#0C0C0C"/>
<path transform="translate(1e3 415)" d="m0 0 2 1-5 4-27 15-19 12-10 6-8 4-17 10-11 6-13 8-9 6-11 6-17 10-11 6-16 9-19 11-4 1v-2l22-12 70-41 26-15 28-16 22-13 17-10z" fill="#565656"/>
<path transform="translate(1137,213)" d="m0 0 4 1 28 16 24 14 28 16 26 15 27 16 21 12 11 7-3 1-15-9-19-11-23-13-13-8-20-11-20-12-17-10-11-6-11-7-9-5-8-5z" fill="#545353"/>
<path transform="translate(351,1219)" d="m0 0 11 6 12 6 13 8 26 15 19 11 14 8 25 15 22 13 1 2-5-2-23-13-27-16-21-12-22-13-28-16-17-10z" fill="#161616"/>
<path transform="translate(609,954)" d="m0 0h1l1 28v99l-1 15-3 5-1-3 2-9z" fill="#010101"/>
<path transform="translate(984,124)" d="m0 0 6 2 41 24 52 30 25 15-2 1-11-6-17-10-16-9-24-14-25-14-9-6-11-6-9-6z" fill="#585858"/>
<path transform="translate(230,1050)" d="m0 0 2 1-4 4-35 20-39 23-3-1 3-3 29-17 26-15z" fill="#0C0C0C"/>
<path transform="translate(578,54)" d="m0 0 2 1-13 8-29 17-19 11-10 6-6 3-17 10-20 11-1-2 26-15 35-20 24-14 23-13z" fill="#595959"/>
<path transform="translate(150,1096)" d="m0 0 2 1-3 4v2l5 1 10 6 20 11 14 8 25 15 9 6-1 2-29-17-23-13-35-20-1-2 6-3z" fill="#0F0F0F"/>
<path transform="translate(315,596)" d="m0 0h7l12 6 13 8 11 6 26 15 7 5-1 2-26-15-23-13-20-11-7 1-6 4-4 4v-4z" fill="#0B0B0B"/>
<path transform="translate(198,272)" d="m0 0h2v2l-19 11-14 8-17 10-28 16-19 11-2-1 16-10 25-14 44-26z" fill="#575757"/>
<path transform="translate(541,723)" d="m0 0 5 2 22 12 9 6 10 5 5 3 13 9 3 5v2h2l-1 24h-1l-1-21-4-7-7-6-27-16-24-14-4-2z" fill="#171616"/>
<path transform="translate(144,966)" d="m0 0m-1 1m-2 1h2l-2 4-16 9-15 9-16 9-6 2 1-3 36-21 13-8z" fill="#0B0B0B"/>
<path transform="translate(662,5)" d="m0 0m-2 1h2l-2 4-19 11-23 13-27 15-2-1 25-15 19-11 17-10z" fill="#4E4D4D"/>
<path transform="translate(1e3 415)" d="m0 0 2 1-5 4-27 15-19 12-10 6-8 4-17 10-9 5-3-1 21-12 26-15 22-13 17-10z" fill="#5B5B5B"/>
<path transform="translate(291,1015)" d="m0 0m-2 1 2 1-3 3-24 14-20 11-11 7-2-1 4-4 24-14 28-16z" fill="#101010"/>
<path transform="translate(273,229)" d="m0 0h2l-1 3-27 15-12 7-31 17-4 2 1-3 16-9 49-28z" fill="#595858"/>
<path transform="translate(606,510)" d="m0 0 5 1 24 14 25 14 19 11-1 2-12-6-10-6-6-4-12-6-10-6-22-13z" fill="#595858"/>
<path transform="translate(778,4)" d="m0 0 5 2 13 7 16 10 26 15 11 7 1 2-6-2-14-9-6-3-15-9-17-10-8-5-5-1z" fill="#575656"/>
<path transform="translate(458,123)" d="m0 0 2 1-18 11-24 14-25 15-2-1 3-3 26-15 24-14z" fill="#5A5A5A"/>
<path transform="translate(391,636)" d="m0 0 5 2 12 7 14 8 22 13v3l-23-13-26-15-4-3z" fill="#111"/>
<path transform="translate(984,124)" d="m0 0 6 2 41 24 7 4v2l-6-2-20-12-19-11-9-6z" fill="#555"/>
<path transform="translate(554,1338)" d="m0 0 6 2 26 15 19 11 4 3-1 2-24-14-29-17z" fill="#141414"/>
<path transform="translate(351,1219)" d="m0 0 11 6 12 6 13 8 19 11v3l-17-10-28-16-10-6z" fill="#161616"/>
<path transform="translate(1137,213)" d="m0 0 4 1 28 16 24 14-3 1-14-8-11-6-11-7-9-5-8-5z" fill="#575656"/>
<path transform="translate(320,202)" d="m0 0 3 1-8 5-26 15-12 7h-2v-2l21-12 23-13z" fill="#595959"/>
<path transform="translate(492,444)" d="m0 0 4 1 27 15 23 14-3 1-16-10-12-6-13-8-10-6z" fill="#585757"/>
<path transform="translate(578,54)" d="m0 0 2 1-13 8-29 17-5 3h-2v-2l26-15z" fill="#565555"/>
<path transform="translate(1192,245)" d="m0 0 4 1 27 15 9 6-3 1-17-10-19-11z" fill="#535353"/>
<path transform="translate(849,503)" d="m0 0h2v2l-23 13-19 11-4 1v-2l22-12z" fill="#5A5A5A"/>
<path transform="translate(354,978)" d="m0 0 2 1-11 8-17 10-2-1 5-5z" fill="#0E0E0E"/>
<path transform="translate(317,1199)" d="m0 0 10 5 13 8 11 7-2 1-18-10-13-8z" fill="#101010"/>
<path transform="translate(872,60)" d="m0 0 5 1 24 14 7 4-2 1-16-8-9-6-9-5z" fill="#575757"/>
<path transform="translate(597,755)" d="m0 0 8 5 3 5v2h2l-1 24h-1l-1-21-4-7-6-5z" fill="#2F2F2F"/>
<path transform="translate(644,531)" d="m0 0 5 2 23 13 7 4-1 2-12-6-10-6-6-4-6-3z" fill="#5A5A5A"/>
<path transform="translate(198,272)" d="m0 0h2v2l-19 11-10 6-2-1 5-4z" fill="#575656"/>
<path transform="translate(511,705)" d="m0 0 7 3v2l7 2 9 6 7 4-1 2-27-15z" fill="#101010"/>
<path transform="translate(579,304)" d="m0 0h2v2l-26 15-3 2-3-1 5-3 16-10z" fill="#595959"/>
<path transform="translate(621,29)" d="m0 0m-2 1 2 1-3 3-27 15-2-1 25-15z" fill="#575757"/>
<path transform="translate(876,487)" d="m0 0 2 1-3 3-15 9-8 4-1-2z" fill="#595959"/>
<path transform="translate(205,1134)" d="m0 0 8 4 18 11v3l-25-15z" fill="#111"/>
<path transform="translate(391,636)" d="m0 0 5 2 12 7 7 5-1 2-22-13z" fill="#0F0F0F"/>
<path transform="translate(407,1251)" d="m0 0 11 6 14 8 4 3-1 2-22-13-6-4z" fill="#131212"/>
<path transform="translate(415,148)" d="m0 0v3l-22 13-2-1 3-3z" fill="#565656"/>
<path transform="translate(168,1086)" d="m0 0m-2 1 2 1-5 5-9 5-3-1 3-3z" fill="#0B0B0B"/>
<path transform="translate(297,877)" d="m0 0 2 1-10 7-11 6 2-4z" fill="#141414"/>
<path transform="translate(1283,297)" d="m0 0 5 2 17 10 1 2-5-1-14-9-4-2z" fill="#565656"/>
<path transform="translate(445,667)" d="m0 0 16 8 3 3-1 2-17-10z" fill="#0D0D0D"/>
<path transform="translate(955,442)" d="m0 0 2 1-10 6-9 5-6 2 3-3z" fill="#5A5A5A"/>
<path transform="translate(492,694)" d="m0 0 12 6 7 5-1 2-17-10z" fill="#0D0D0D"/>
<path transform="translate(849,503)" d="m0 0h2v2l-20 11-3-1 18-10z" fill="#5F5F5F"/>
<path transform="translate(250,242)" d="m0 0 2 1-3 3-14 8-2-1 3-3z" fill="#595858"/>
<path transform="translate(662,5)" d="m0 0m-2 1h2l-2 4-10 6-2-1 5-5z" fill="#535252"/>
<path transform="translate(230,1050)" d="m0 0 2 1-4 4-9 5-2-1 4-4z" fill="#0E0E0E"/>
<path transform="translate(245,1041)" d="m0 0 2 1-4 4-10 6-2-1 4-4z" fill="#161616"/>
<path transform="translate(351,1219)" d="m0 0 11 6 8 4v3l-19-11z" fill="#191919"/>
<path transform="translate(261,1032)" d="m0 0m-2 1 2 1-3 3-10 6-2-1 4-4z" fill="#0F0F0F"/>
<path transform="translate(290,219)" d="m0 0 2 1-3 3-12 7h-2v-2z" fill="#5A5A5A"/>
<path transform="translate(529,82)" d="m0 0h2v2l-14 8-5 1 5-4z" fill="#5A5A5A"/>
<path transform="translate(1217,259)" d="m0 0 6 2 9 6-3 1-12-7z" fill="#504F4F"/>
<path transform="translate(1137,213)" d="m0 0 4 1 16 9-3 1-9-5-8-5z" fill="#5A5A5A"/>
<path transform="translate(315,596)" d="m0 0m-2 1 3 1-4 3-6 5-2 2v-4z" fill="#121212"/>
<path transform="translate(303,1008)" d="m0 0m-2 1 2 1-4 4-7 4-2-1 4-4z" fill="#0E0D0D"/>
<path transform="translate(150,1096)" d="m0 0 2 1-3 4 1 4-6-3-1-2 6-3z" fill="#171717"/>
<path transform="translate(579,304)" d="m0 0h2v2l-14 8v-3z" fill="#5A5A5A"/>
<path transform="translate(633,22)" d="m0 0m-2 1 2 1-4 4-7 4-2-1 8-6z" fill="#525151"/>
<path transform="translate(269,1027)" d="m0 0 2 1-5 5-6 2 2-4z" fill="#121212"/>
<path transform="translate(181,282)" d="m0 0m-2 1h2l-1 3-9 5-2-1 5-4z" fill="#525151"/>
<path transform="translate(350,185)" d="m0 0 3 1-11 7-2-1 3-3z" fill="#585757"/>
<path transform="translate(597,1362)" d="m0 0 8 4 4 3-1 2-10-6z" fill="#121212"/>
<path transform="translate(220,1143)" d="m0 0 10 5 2 4-11-6z" fill="#171717"/>
</svg>
