<?xml version="1.0" encoding="UTF-8"?>
<svg version="1.1" viewBox="0 0 1440 1440" width="1280" height="1280" xmlns="http://www.w3.org/2000/svg">
<path transform="translate(749,571)" d="m0 0h36l63 2 48 3 45 4 58 7 110 17 22 5 21 7 16 8 14 10 7 7 10 15 6 15 4 15 3 24 1 23 2 82v56l-2 33-5 30-7 25-8 18-9 16-11 14-12 12-14 10-19 10-24 8-22 5-33 5-78 10-34 3h-52l-25-3-16-4-10-4-11-6-21-14-17-9-20-7-20-4-8-1h-38l-19 3-17 5-12 5-11 6-12 9-9 9-11 7-13 5-19 4-25 2h-24l-35-2-47-5-53-8-29-6-22-6-17-6-16-7-19-10-14-10-10-9-12-12-10-14-7-15-4-15v-99l-4-102v-20l2-25 4-21 4-12 8-16 9-11 11-10 16-10 16-8 23-8 23-6 26-5 35-5 48-5 59-4 157-7 46-2z"/>
<path transform="translate(655,339)" d="m0 0h133l5 2 1 3 1 13 5 140v15l36 1 97 5 30 3 30 4h72l25 2 23 5 20 8 13 8 11 9 14 14 11 14 10 14 12 21 11 25 9 27 7 28 6 35 5 2 1 5v121l-1 35-7 2v7l-8 36-8 26-9 21-8 15-10 14-12 14-12 10-14 9-23 11-25 9-25 7-30 6-31 4-22 2-43 2h-88l-18-2-15-4-16-8-16-12-13-9-15-7-19-5-15-2h-29l-21 3-20 5-20 8-16 10-10 8-8 6-16 8-14 4-16 3-28 2-31-1-32-3-35-5-74-12-29-6-27-8-23-10-15-9-11-9-10-9-10-11-12-18-10-19-9-24-7-26-6-31-3-2-1-4v-155l3-3 3-1 6-39 6-28 5-17 10-25 12-23 12-17 12-14 12-11 15-10 14-8 20-8 18-5 18-3 29-2 59-2 118-7 69-4 1-26 2-95 2-43 3-5 3-3zm-273 196-22 2-20 4-21 7-16 8-11 7-10 8-10 9-2 4h-2l-10 13-9 14-6 10-9 20-7 19-8 32-5 33-1 11 3 3v150l-1 9-3 1 1 13 5 25 7 24 8 19 7 14 8 12 12 15 8 7 9 8 14 9 16 8 16 6 26 7 26 5 73 12 27 4 29 3 13 1h43l22-3 16-5 12-6 9-7 10-8 13-8 15-7 18-6 24-5 9-1h37l23 4 15 5 15 8 9 7 13 10 17 9 15 4 7 1 20 1h75l40-2 34-3 32-5 27-6 24-7 27-11 15-8 14-10 14-14 11-15 8-14 10-23 8-26 6-28 2-13-2-2v-159l3-2-1-10-7-35-7-25-9-25-11-23-14-22-10-13-12-13-10-10-13-9-15-7-21-6-23-3h-66l-125 2-290 1h-49l-57-2-20-1z" fill="#020202"/>
</svg>
